<svg width="16" height="16" viewBox="0 0 16 16" xmlns="http://www.w3.org/2000/svg" fill="currentColor">
  <!-- Database cylinder (small) -->
  <path d="M4 1C2.34 1 1 1.67 1 2.5v2C1 5.33 2.34 6 4 6s3-.67 3-1.5v-2C7 1.67 5.66 1 4 1zm0 1c1.38 0 2 .45 2 .5s-.62.5-2 .5-2-.45-2-.5.62-.5 2-.5zm-2 2c.47.31 1.18.5 2 .5s1.53-.19 2-.5v.5c0 .05-.62.5-2 .5S2 4.55 2 4.5V4z"/>
  <!-- Funnel/filter -->
  <path d="M2 7h4l-1 2H3l-1-2zm1 3h2v2H3v-2z"/>
  <!-- Result table -->
  <path fill-rule="evenodd" clip-rule="evenodd" d="M8 8h7v7H8V8zm1 1v1h5V9H9zm0 2v1h2v-1H9zm3 0v1h2v-1h-2zm-3 2v1h2v-1H9zm3 0v1h2v-1h-2z"/>
</svg>
