<svg width="16" height="16" viewBox="0 0 16 16" xmlns="http://www.w3.org/2000/svg" fill="currentColor">
  <!-- Main menu container -->
  <path fill-rule="evenodd" clip-rule="evenodd" d="M1 2h9v12H1V2zm1 1v10h7V3H2z"/>
  <!-- Main menu items -->
  <path d="M3 5h4v1H3V5zm0 2h4v1H3V7zm0 2h4v1H3V9zm0 2h4v1H3v-1z"/>
  <!-- Arrow for submenu indicator -->
  <path d="M7 9.5l1.5-1v2l-1.5-1z"/>
  <!-- Sub-menu container -->
  <path fill-rule="evenodd" clip-rule="evenodd" d="M9 6h6v8H9V6zm1 1v6h4V7h-4z"/>
  <!-- Sub-menu items -->
  <path d="M10 8h3v1h-3V8zm0 2h3v1h-3v-1zm0 2h3v1h-3v-1z"/>
</svg>
